# xmcd CD database file
#
# Track frame offsets:
#	150
#	6635
#	15534
#	27491
#	42410
#	45798
#	49388
#	67456
#	87450
#	106575
#	120075
#	124251
#	130387
#	147766
#	163757
#	180418
#	185910
#	191259
#	203153
#	223058
#	230469
#	243064
#	255556
#	268201
#
# Disc length: 3755 seconds
#
# Revision: 0
# Processed by: cddbd v1.5.2PL0 Copyright (c) Steve Scherf et al.
# Submitted via: CDex 1.70beta2
#
DISCID=5c0ea918
DTITLE=Bill Eckstine and his Orchestra - The First Bebop Big Band - Bebop Story The Early Years Vol 7 1945 CD 007
DYEAR=2008
DGENRE=Jazz
TTITLE0=Blue 'n' Boogie Theme
TTITLE1=Blowin' The Blues Away
TTITLE2='Deed In Do
TTITLE3=I Wanna Talk About You
TTITLE4=Blue 'n' Boogie Theme
TTITLE5=Blue 'n' Boogie Theme
TTITLE6=Together
TTITLE7=Mean To Me
TTITLE8=Without A Song
TTITLE9=Mr.Chips
TTITLE10=Blue 'n' Boogie Theme
TTITLE11=Blue 'n' Boogie Theme
TTITLE12=Air Mail Special
TTITLE13=Don't Blame Me
TTITLE14=If That's The Way You Feel
TTITLE15=Blue 'n' Boogie Theme
TTITLE16=Blue 'n' Boogie Theme
TTITLE17=Opus X
TTITLE18=Love Me Or Leave Me
TTITLE19=One O'clock Jump
TTITLE20=Lonesome Lover Blues
TTITLE21=A Cottage For Sale
TTITLE22=I Love The Rhythm In A Riff
TTITLE23=Last Night
EXTD=YEAR: 2008
EXTT0=
EXTT1=
EXTT2=
EXTT3=
EXTT4=
EXTT5=
EXTT6=
EXTT7=
EXTT8=
EXTT9=
EXTT10=
EXTT11=
EXTT12=
EXTT13=
EXTT14=
EXTT15=
EXTT16=
EXTT17=
EXTT18=
EXTT19=
EXTT20=
EXTT21=
EXTT22=
EXTT23=
PLAYORDER=
